<mxfile host="app.diagrams.net" modified="2023-07-08T15:37:23.991Z" agent="Mozilla/5.0 (Windows NT 10.0; Win64; x64) AppleWebKit/537.36 (KHTML, like Gecko) Chrome/114.0.0.0 Safari/537.36" etag="W-4iYlLx2EqAqnCYiQkr" version="21.6.1" type="github">
  <diagram name="Page-1" id="T2A-GawpZ_qJLsvUHE60">
    <mxGraphModel dx="1909" dy="2233" grid="1" gridSize="10" guides="1" tooltips="1" connect="1" arrows="1" fold="1" page="1" pageScale="1" pageWidth="850" pageHeight="1100" math="0" shadow="0">
      <root>
        <mxCell id="0" />
        <mxCell id="1" parent="0" />
        <mxCell id="yezaKidyv2OO5n8ayiB5-212" style="edgeStyle=orthogonalEdgeStyle;rounded=0;orthogonalLoop=1;jettySize=auto;html=1;exitX=0.5;exitY=1;exitDx=0;exitDy=0;entryX=0.5;entryY=0;entryDx=0;entryDy=0;" parent="1" source="yezaKidyv2OO5n8ayiB5-98" target="yezaKidyv2OO5n8ayiB5-102" edge="1">
          <mxGeometry relative="1" as="geometry" />
        </mxCell>
        <mxCell id="yezaKidyv2OO5n8ayiB5-98" value="Existing Auction Business Model" style="swimlane;whiteSpace=wrap;html=1;" parent="1" vertex="1">
          <mxGeometry x="9" y="190" width="831.16" height="470" as="geometry">
            <mxRectangle x="50" y="200" width="230" height="30" as="alternateBounds" />
          </mxGeometry>
        </mxCell>
        <mxCell id="yezaKidyv2OO5n8ayiB5-44" value="&lt;i style=&quot;border-color: var(--border-color);&quot;&gt;(14.25 WIB)&lt;br&gt;&lt;/i&gt;Announce the auction winner" style="rounded=0;whiteSpace=wrap;html=1;labelBorderColor=none;" parent="yezaKidyv2OO5n8ayiB5-98" vertex="1">
          <mxGeometry x="463.1600000000001" y="105" width="166.22" height="50" as="geometry" />
        </mxCell>
        <mxCell id="yezaKidyv2OO5n8ayiB5-89" value="Auction winner (single)" style="shape=parallelogram;perimeter=parallelogramPerimeter;whiteSpace=wrap;html=1;fixedSize=1;fillColor=#f5f5f5;fontColor=#333333;strokeColor=#666666;" parent="yezaKidyv2OO5n8ayiB5-98" vertex="1">
          <mxGeometry x="649.63" y="105" width="170" height="50" as="geometry" />
        </mxCell>
        <mxCell id="yezaKidyv2OO5n8ayiB5-90" style="edgeStyle=orthogonalEdgeStyle;rounded=0;orthogonalLoop=1;jettySize=auto;html=1;exitX=1;exitY=0.5;exitDx=0;exitDy=0;entryX=0;entryY=0.5;entryDx=0;entryDy=0;dashed=1;" parent="yezaKidyv2OO5n8ayiB5-98" source="yezaKidyv2OO5n8ayiB5-44" target="yezaKidyv2OO5n8ayiB5-89" edge="1">
          <mxGeometry relative="1" as="geometry" />
        </mxCell>
        <mxCell id="yezaKidyv2OO5n8ayiB5-147" style="edgeStyle=orthogonalEdgeStyle;rounded=0;orthogonalLoop=1;jettySize=auto;html=1;exitX=1;exitY=0.5;exitDx=0;exitDy=0;entryX=0;entryY=0.5;entryDx=0;entryDy=0;dashed=1;" parent="yezaKidyv2OO5n8ayiB5-98" source="yezaKidyv2OO5n8ayiB5-41" target="yezaKidyv2OO5n8ayiB5-87" edge="1">
          <mxGeometry relative="1" as="geometry" />
        </mxCell>
        <mxCell id="yezaKidyv2OO5n8ayiB5-41" value="&lt;i style=&quot;border-color: var(--border-color);&quot;&gt;(13.50 WIB)&lt;br&gt;&lt;/i&gt;Announce the auction winner" style="rounded=0;whiteSpace=wrap;html=1;labelBorderColor=none;" parent="yezaKidyv2OO5n8ayiB5-98" vertex="1">
          <mxGeometry x="461.0000000000001" y="35" width="166.22" height="50" as="geometry" />
        </mxCell>
        <mxCell id="yezaKidyv2OO5n8ayiB5-87" value="Auction winner (single)" style="shape=parallelogram;perimeter=parallelogramPerimeter;whiteSpace=wrap;html=1;fixedSize=1;fillColor=#f5f5f5;fontColor=#333333;strokeColor=#666666;" parent="yezaKidyv2OO5n8ayiB5-98" vertex="1">
          <mxGeometry x="649.63" y="35" width="170" height="50" as="geometry" />
        </mxCell>
        <mxCell id="yezaKidyv2OO5n8ayiB5-5" value="&lt;i style=&quot;border-color: var(--border-color);&quot;&gt;(12.30-13.45 WIB)&lt;br&gt;&lt;/i&gt;Bidder submits their bid into the system" style="rounded=0;whiteSpace=wrap;html=1;labelBorderColor=none;" parent="yezaKidyv2OO5n8ayiB5-98" vertex="1">
          <mxGeometry x="16.89" y="330" width="166.22" height="60" as="geometry" />
        </mxCell>
        <mxCell id="yezaKidyv2OO5n8ayiB5-15" value="&lt;i style=&quot;border-color: var(--border-color);&quot;&gt;(12.30 WIB)&lt;br&gt;&lt;/i&gt;Inacom opens the auction and announces it to all participants" style="rounded=0;whiteSpace=wrap;html=1;labelBorderColor=none;" parent="yezaKidyv2OO5n8ayiB5-98" vertex="1">
          <mxGeometry x="16.89" y="230" width="166.22" height="60" as="geometry" />
        </mxCell>
        <mxCell id="yezaKidyv2OO5n8ayiB5-37" style="edgeStyle=orthogonalEdgeStyle;rounded=0;orthogonalLoop=1;jettySize=auto;html=1;exitX=0.5;exitY=1;exitDx=0;exitDy=0;entryX=0.5;entryY=0;entryDx=0;entryDy=0;" parent="yezaKidyv2OO5n8ayiB5-98" source="yezaKidyv2OO5n8ayiB5-15" target="yezaKidyv2OO5n8ayiB5-5" edge="1">
          <mxGeometry relative="1" as="geometry" />
        </mxCell>
        <mxCell id="yezaKidyv2OO5n8ayiB5-12" value="&lt;i&gt;(12.00-12.30 WIB)&lt;br&gt;&lt;/i&gt;Inacom receives the list of CPO that is being auctioned and inputs it into the system" style="rounded=0;whiteSpace=wrap;html=1;labelBorderColor=none;" parent="yezaKidyv2OO5n8ayiB5-98" vertex="1">
          <mxGeometry x="16.89" y="120" width="166.22" height="70" as="geometry" />
        </mxCell>
        <mxCell id="yezaKidyv2OO5n8ayiB5-16" style="edgeStyle=orthogonalEdgeStyle;rounded=0;orthogonalLoop=1;jettySize=auto;html=1;exitX=0.5;exitY=1;exitDx=0;exitDy=0;entryX=0.5;entryY=0;entryDx=0;entryDy=0;" parent="yezaKidyv2OO5n8ayiB5-98" source="yezaKidyv2OO5n8ayiB5-12" target="yezaKidyv2OO5n8ayiB5-15" edge="1">
          <mxGeometry relative="1" as="geometry" />
        </mxCell>
        <mxCell id="yezaKidyv2OO5n8ayiB5-96" style="edgeStyle=orthogonalEdgeStyle;rounded=0;orthogonalLoop=1;jettySize=auto;html=1;exitX=1;exitY=0.5;exitDx=0;exitDy=0;entryX=0;entryY=0.5;entryDx=0;entryDy=0;" parent="1" source="yezaKidyv2OO5n8ayiB5-5" target="yezaKidyv2OO5n8ayiB5-6" edge="1">
          <mxGeometry relative="1" as="geometry">
            <Array as="points">
              <mxPoint x="220" y="550" />
              <mxPoint x="220" y="250" />
            </Array>
          </mxGeometry>
        </mxCell>
        <mxCell id="yezaKidyv2OO5n8ayiB5-40" style="edgeStyle=orthogonalEdgeStyle;rounded=0;orthogonalLoop=1;jettySize=auto;html=1;exitX=0.5;exitY=1;exitDx=0;exitDy=0;entryX=0.5;entryY=0;entryDx=0;entryDy=0;" parent="1" source="yezaKidyv2OO5n8ayiB5-6" target="yezaKidyv2OO5n8ayiB5-39" edge="1">
          <mxGeometry relative="1" as="geometry" />
        </mxCell>
        <mxCell id="yezaKidyv2OO5n8ayiB5-6" value="&lt;i style=&quot;border-color: var(--border-color);&quot;&gt;(13.45 WIB)&lt;br&gt;&lt;/i&gt;Inacom closed the auction" style="rounded=0;whiteSpace=wrap;html=1;labelBorderColor=none;" parent="1" vertex="1">
          <mxGeometry x="250.16000000000014" y="225" width="166.22" height="50" as="geometry" />
        </mxCell>
        <mxCell id="yezaKidyv2OO5n8ayiB5-11" value="&lt;i&gt;(12.00-12.30 WIB)&lt;/i&gt;&lt;br&gt;PTPN Holding sent a list of CPO to be auctioned" style="rounded=0;whiteSpace=wrap;html=1;labelBorderColor=none;" parent="1" vertex="1">
          <mxGeometry x="25.889999999999986" y="225" width="166.22" height="50" as="geometry" />
        </mxCell>
        <mxCell id="yezaKidyv2OO5n8ayiB5-13" style="edgeStyle=orthogonalEdgeStyle;rounded=0;orthogonalLoop=1;jettySize=auto;html=1;exitX=0.5;exitY=1;exitDx=0;exitDy=0;" parent="1" source="yezaKidyv2OO5n8ayiB5-11" target="yezaKidyv2OO5n8ayiB5-12" edge="1">
          <mxGeometry relative="1" as="geometry" />
        </mxCell>
        <mxCell id="yezaKidyv2OO5n8ayiB5-169" style="edgeStyle=orthogonalEdgeStyle;rounded=0;orthogonalLoop=1;jettySize=auto;html=1;exitX=0.5;exitY=1;exitDx=0;exitDy=0;entryX=0.5;entryY=0;entryDx=0;entryDy=0;" parent="1" source="yezaKidyv2OO5n8ayiB5-18" target="yezaKidyv2OO5n8ayiB5-98" edge="1">
          <mxGeometry relative="1" as="geometry" />
        </mxCell>
        <mxCell id="yezaKidyv2OO5n8ayiB5-18" value="Start" style="ellipse;whiteSpace=wrap;html=1;" parent="1" vertex="1">
          <mxGeometry x="365.0000000000001" y="110" width="120" height="50" as="geometry" />
        </mxCell>
        <mxCell id="yezaKidyv2OO5n8ayiB5-53" style="edgeStyle=orthogonalEdgeStyle;rounded=0;orthogonalLoop=1;jettySize=auto;html=1;exitX=0.5;exitY=1;exitDx=0;exitDy=0;entryX=0.5;entryY=0;entryDx=0;entryDy=0;" parent="1" source="yezaKidyv2OO5n8ayiB5-38" target="yezaKidyv2OO5n8ayiB5-42" edge="1">
          <mxGeometry relative="1" as="geometry" />
        </mxCell>
        <mxCell id="yezaKidyv2OO5n8ayiB5-146" style="edgeStyle=orthogonalEdgeStyle;rounded=0;orthogonalLoop=1;jettySize=auto;html=1;exitX=1;exitY=0.5;exitDx=0;exitDy=0;entryX=0;entryY=0.5;entryDx=0;entryDy=0;" parent="1" source="yezaKidyv2OO5n8ayiB5-38" target="yezaKidyv2OO5n8ayiB5-41" edge="1">
          <mxGeometry relative="1" as="geometry" />
        </mxCell>
        <mxCell id="yezaKidyv2OO5n8ayiB5-38" value="&lt;font style=&quot;font-size: 9px;&quot;&gt;Bidder price&amp;nbsp;â‰¥&amp;nbsp;&lt;br&gt;price idea?&lt;/font&gt;" style="rhombus;whiteSpace=wrap;html=1;" parent="1" vertex="1">
          <mxGeometry x="287.69" y="368" width="91.16" height="60" as="geometry" />
        </mxCell>
        <mxCell id="yezaKidyv2OO5n8ayiB5-52" style="edgeStyle=orthogonalEdgeStyle;rounded=0;orthogonalLoop=1;jettySize=auto;html=1;exitX=0.5;exitY=1;exitDx=0;exitDy=0;entryX=0.5;entryY=0;entryDx=0;entryDy=0;" parent="1" source="yezaKidyv2OO5n8ayiB5-39" target="yezaKidyv2OO5n8ayiB5-38" edge="1">
          <mxGeometry relative="1" as="geometry" />
        </mxCell>
        <mxCell id="yezaKidyv2OO5n8ayiB5-39" value="&lt;i style=&quot;border-color: var(--border-color);&quot;&gt;(13.45 WIB)&lt;br&gt;&lt;/i&gt;PTPN Holding sent a price idea" style="rounded=0;whiteSpace=wrap;html=1;labelBorderColor=none;" parent="1" vertex="1">
          <mxGeometry x="250.16000000000014" y="297" width="166.22" height="50" as="geometry" />
        </mxCell>
        <mxCell id="yezaKidyv2OO5n8ayiB5-78" style="edgeStyle=orthogonalEdgeStyle;rounded=0;orthogonalLoop=1;jettySize=auto;html=1;exitX=0.5;exitY=1;exitDx=0;exitDy=0;entryX=0.5;entryY=0;entryDx=0;entryDy=0;" parent="1" source="yezaKidyv2OO5n8ayiB5-42" target="yezaKidyv2OO5n8ayiB5-43" edge="1">
          <mxGeometry relative="1" as="geometry" />
        </mxCell>
        <mxCell id="yezaKidyv2OO5n8ayiB5-42" value="&lt;i style=&quot;border-color: var(--border-color);&quot;&gt;(14.15 WIB)&lt;br&gt;&lt;/i&gt;Auction counter 1" style="rounded=0;whiteSpace=wrap;html=1;labelBorderColor=none;" parent="1" vertex="1">
          <mxGeometry x="250.16000000000014" y="446" width="166.22" height="50" as="geometry" />
        </mxCell>
        <mxCell id="yezaKidyv2OO5n8ayiB5-79" style="edgeStyle=orthogonalEdgeStyle;rounded=0;orthogonalLoop=1;jettySize=auto;html=1;exitX=1;exitY=0.5;exitDx=0;exitDy=0;entryX=0;entryY=0.5;entryDx=0;entryDy=0;" parent="1" source="yezaKidyv2OO5n8ayiB5-43" target="yezaKidyv2OO5n8ayiB5-44" edge="1">
          <mxGeometry relative="1" as="geometry">
            <Array as="points">
              <mxPoint x="440" y="538" />
              <mxPoint x="440" y="320" />
            </Array>
          </mxGeometry>
        </mxCell>
        <mxCell id="yezaKidyv2OO5n8ayiB5-85" style="edgeStyle=orthogonalEdgeStyle;rounded=0;orthogonalLoop=1;jettySize=auto;html=1;exitX=0.5;exitY=1;exitDx=0;exitDy=0;entryX=0.5;entryY=0;entryDx=0;entryDy=0;" parent="1" source="yezaKidyv2OO5n8ayiB5-43" target="yezaKidyv2OO5n8ayiB5-45" edge="1">
          <mxGeometry relative="1" as="geometry" />
        </mxCell>
        <mxCell id="yezaKidyv2OO5n8ayiB5-43" value="&lt;font style=&quot;font-size: 9px;&quot;&gt;Bidder price&amp;nbsp;â‰¥&amp;nbsp;&lt;br&gt;price idea?&lt;/font&gt;" style="rhombus;whiteSpace=wrap;html=1;" parent="1" vertex="1">
          <mxGeometry x="287.69" y="514" width="91.16" height="60" as="geometry" />
        </mxCell>
        <mxCell id="yezaKidyv2OO5n8ayiB5-80" style="edgeStyle=orthogonalEdgeStyle;rounded=0;orthogonalLoop=1;jettySize=auto;html=1;exitX=1;exitY=0.5;exitDx=0;exitDy=0;entryX=0;entryY=0.5;entryDx=0;entryDy=0;" parent="1" source="yezaKidyv2OO5n8ayiB5-45" target="yezaKidyv2OO5n8ayiB5-46" edge="1">
          <mxGeometry relative="1" as="geometry">
            <Array as="points">
              <mxPoint x="450" y="620" />
              <mxPoint x="450" y="395" />
            </Array>
          </mxGeometry>
        </mxCell>
        <mxCell id="yezaKidyv2OO5n8ayiB5-45" value="&lt;i style=&quot;border-color: var(--border-color);&quot;&gt;(14.25 WIB)&lt;br&gt;&lt;/i&gt;Auction counter 2" style="rounded=0;whiteSpace=wrap;html=1;labelBorderColor=none;" parent="1" vertex="1">
          <mxGeometry x="250.16000000000014" y="595" width="166.22" height="50" as="geometry" />
        </mxCell>
        <mxCell id="yezaKidyv2OO5n8ayiB5-81" style="edgeStyle=orthogonalEdgeStyle;rounded=0;orthogonalLoop=1;jettySize=auto;html=1;exitX=0.5;exitY=1;exitDx=0;exitDy=0;entryX=0.5;entryY=0;entryDx=0;entryDy=0;" parent="1" source="yezaKidyv2OO5n8ayiB5-46" target="yezaKidyv2OO5n8ayiB5-48" edge="1">
          <mxGeometry relative="1" as="geometry" />
        </mxCell>
        <mxCell id="yezaKidyv2OO5n8ayiB5-86" style="edgeStyle=orthogonalEdgeStyle;rounded=0;orthogonalLoop=1;jettySize=auto;html=1;exitX=1;exitY=0.5;exitDx=0;exitDy=0;entryX=0;entryY=0.5;entryDx=0;entryDy=0;" parent="1" source="yezaKidyv2OO5n8ayiB5-46" target="yezaKidyv2OO5n8ayiB5-47" edge="1">
          <mxGeometry relative="1" as="geometry" />
        </mxCell>
        <mxCell id="yezaKidyv2OO5n8ayiB5-46" value="&lt;font style=&quot;font-size: 9px;&quot;&gt;Bidder price&amp;nbsp;â‰¥&amp;nbsp;&lt;br&gt;price idea?&lt;/font&gt;" style="rhombus;whiteSpace=wrap;html=1;" parent="1" vertex="1">
          <mxGeometry x="509.68999999999994" y="365" width="91.16" height="60" as="geometry" />
        </mxCell>
        <mxCell id="yezaKidyv2OO5n8ayiB5-94" style="edgeStyle=orthogonalEdgeStyle;rounded=0;orthogonalLoop=1;jettySize=auto;html=1;exitX=0.5;exitY=1;exitDx=0;exitDy=0;entryX=0.5;entryY=0;entryDx=0;entryDy=0;dashed=1;" parent="1" source="yezaKidyv2OO5n8ayiB5-47" target="yezaKidyv2OO5n8ayiB5-92" edge="1">
          <mxGeometry relative="1" as="geometry" />
        </mxCell>
        <mxCell id="yezaKidyv2OO5n8ayiB5-47" value="&lt;i style=&quot;border-color: var(--border-color);&quot;&gt;(14.35 WIB)&lt;br&gt;&lt;/i&gt;Announce the auction winner" style="rounded=0;whiteSpace=wrap;html=1;labelBorderColor=none;" parent="1" vertex="1">
          <mxGeometry x="658.6300000000001" y="370" width="166.22" height="50" as="geometry" />
        </mxCell>
        <mxCell id="yezaKidyv2OO5n8ayiB5-82" style="edgeStyle=orthogonalEdgeStyle;rounded=0;orthogonalLoop=1;jettySize=auto;html=1;exitX=0.5;exitY=1;exitDx=0;exitDy=0;entryX=0.5;entryY=0;entryDx=0;entryDy=0;" parent="1" source="yezaKidyv2OO5n8ayiB5-48" target="yezaKidyv2OO5n8ayiB5-49" edge="1">
          <mxGeometry relative="1" as="geometry" />
        </mxCell>
        <mxCell id="yezaKidyv2OO5n8ayiB5-48" value="&lt;i style=&quot;border-color: var(--border-color);&quot;&gt;(14.35 WIB)&lt;br&gt;&lt;/i&gt;Auction counter 3" style="rounded=0;whiteSpace=wrap;html=1;labelBorderColor=none;" parent="1" vertex="1">
          <mxGeometry x="472.1600000000001" y="445" width="166.22" height="50" as="geometry" />
        </mxCell>
        <mxCell id="yezaKidyv2OO5n8ayiB5-83" style="edgeStyle=orthogonalEdgeStyle;rounded=0;orthogonalLoop=1;jettySize=auto;html=1;exitX=0.5;exitY=1;exitDx=0;exitDy=0;entryX=0.5;entryY=0;entryDx=0;entryDy=0;" parent="1" source="yezaKidyv2OO5n8ayiB5-49" target="yezaKidyv2OO5n8ayiB5-51" edge="1">
          <mxGeometry relative="1" as="geometry" />
        </mxCell>
        <mxCell id="yezaKidyv2OO5n8ayiB5-97" style="edgeStyle=orthogonalEdgeStyle;rounded=0;orthogonalLoop=1;jettySize=auto;html=1;exitX=1;exitY=0.5;exitDx=0;exitDy=0;entryX=0;entryY=0.5;entryDx=0;entryDy=0;" parent="1" source="yezaKidyv2OO5n8ayiB5-49" target="yezaKidyv2OO5n8ayiB5-50" edge="1">
          <mxGeometry relative="1" as="geometry" />
        </mxCell>
        <mxCell id="yezaKidyv2OO5n8ayiB5-49" value="&lt;font style=&quot;font-size: 9px;&quot;&gt;Bidder price&amp;nbsp;â‰¥&amp;nbsp;&lt;br&gt;price idea?&lt;/font&gt;" style="rhombus;whiteSpace=wrap;html=1;" parent="1" vertex="1">
          <mxGeometry x="509.68999999999994" y="515" width="91.16" height="60" as="geometry" />
        </mxCell>
        <mxCell id="yezaKidyv2OO5n8ayiB5-95" style="edgeStyle=orthogonalEdgeStyle;rounded=0;orthogonalLoop=1;jettySize=auto;html=1;exitX=0.5;exitY=1;exitDx=0;exitDy=0;entryX=0.5;entryY=0;entryDx=0;entryDy=0;dashed=1;" parent="1" source="yezaKidyv2OO5n8ayiB5-50" target="yezaKidyv2OO5n8ayiB5-93" edge="1">
          <mxGeometry relative="1" as="geometry" />
        </mxCell>
        <mxCell id="yezaKidyv2OO5n8ayiB5-50" value="&lt;i style=&quot;border-color: var(--border-color);&quot;&gt;(14.45 WIB)&lt;br&gt;&lt;/i&gt;Announce the auction winner" style="rounded=0;whiteSpace=wrap;html=1;labelBorderColor=none;" parent="1" vertex="1">
          <mxGeometry x="656.7400000000001" y="520" width="166.22" height="50" as="geometry" />
        </mxCell>
        <mxCell id="yezaKidyv2OO5n8ayiB5-51" value="&lt;i style=&quot;border-color: var(--border-color);&quot;&gt;(14.45 WIB)&lt;br&gt;&lt;/i&gt;End auction" style="rounded=0;whiteSpace=wrap;html=1;labelBorderColor=none;" parent="1" vertex="1">
          <mxGeometry x="472.1600000000001" y="595" width="166.22" height="50" as="geometry" />
        </mxCell>
        <mxCell id="yezaKidyv2OO5n8ayiB5-92" value="Auction winner (single)" style="shape=parallelogram;perimeter=parallelogramPerimeter;whiteSpace=wrap;html=1;fixedSize=1;fillColor=#f5f5f5;fontColor=#333333;strokeColor=#666666;" parent="1" vertex="1">
          <mxGeometry x="656.74" y="440" width="170" height="50" as="geometry" />
        </mxCell>
        <mxCell id="yezaKidyv2OO5n8ayiB5-93" value="Auction winner (single)" style="shape=parallelogram;perimeter=parallelogramPerimeter;whiteSpace=wrap;html=1;fixedSize=1;fillColor=#f5f5f5;fontColor=#333333;strokeColor=#666666;" parent="1" vertex="1">
          <mxGeometry x="656.74" y="590" width="170" height="50" as="geometry" />
        </mxCell>
        <mxCell id="yezaKidyv2OO5n8ayiB5-225" style="edgeStyle=orthogonalEdgeStyle;rounded=0;orthogonalLoop=1;jettySize=auto;html=1;exitX=1;exitY=0.5;exitDx=0;exitDy=0;entryX=0;entryY=0.5;entryDx=0;entryDy=0;" parent="1" source="yezaKidyv2OO5n8ayiB5-102" target="yezaKidyv2OO5n8ayiB5-183" edge="1">
          <mxGeometry relative="1" as="geometry" />
        </mxCell>
        <mxCell id="yezaKidyv2OO5n8ayiB5-226" style="edgeStyle=orthogonalEdgeStyle;rounded=0;orthogonalLoop=1;jettySize=auto;html=1;exitX=0.5;exitY=1;exitDx=0;exitDy=0;entryX=0.5;entryY=0;entryDx=0;entryDy=0;" parent="1" source="yezaKidyv2OO5n8ayiB5-102" target="yezaKidyv2OO5n8ayiB5-214" edge="1">
          <mxGeometry relative="1" as="geometry" />
        </mxCell>
        <mxCell id="yezaKidyv2OO5n8ayiB5-102" value="Transforming Existing Auction Business Model into IBEA Business Model" style="swimlane;whiteSpace=wrap;html=1;" parent="1" vertex="1">
          <mxGeometry x="9" y="720" width="431" height="330" as="geometry">
            <mxRectangle x="50" y="200" width="230" height="30" as="alternateBounds" />
          </mxGeometry>
        </mxCell>
        <mxCell id="yezaKidyv2OO5n8ayiB5-181" style="edgeStyle=orthogonalEdgeStyle;rounded=0;orthogonalLoop=1;jettySize=auto;html=1;exitX=1;exitY=0.5;exitDx=0;exitDy=0;entryX=0;entryY=0.5;entryDx=0;entryDy=0;" parent="yezaKidyv2OO5n8ayiB5-102" source="yezaKidyv2OO5n8ayiB5-155" target="yezaKidyv2OO5n8ayiB5-170" edge="1">
          <mxGeometry relative="1" as="geometry" />
        </mxCell>
        <mxCell id="yezaKidyv2OO5n8ayiB5-155" value="Identify metadata&amp;nbsp;" style="rounded=0;whiteSpace=wrap;html=1;labelBorderColor=none;" parent="yezaKidyv2OO5n8ayiB5-102" vertex="1">
          <mxGeometry x="21" y="260" width="166.22" height="50" as="geometry" />
        </mxCell>
        <mxCell id="yezaKidyv2OO5n8ayiB5-156" value="Create BPMN Diagram&lt;br&gt;" style="rounded=0;whiteSpace=wrap;html=1;labelBorderColor=none;" parent="yezaKidyv2OO5n8ayiB5-102" vertex="1">
          <mxGeometry x="231.00000000000014" y="190" width="166.22" height="50" as="geometry" />
        </mxCell>
        <mxCell id="yezaKidyv2OO5n8ayiB5-158" value="&lt;div&gt;BPMN of IBEA Model&lt;/div&gt;" style="shape=parallelogram;perimeter=parallelogramPerimeter;whiteSpace=wrap;html=1;fixedSize=1;fillColor=#f5f5f5;fontColor=#333333;strokeColor=#666666;" parent="yezaKidyv2OO5n8ayiB5-102" vertex="1">
          <mxGeometry x="225.2699999999999" y="260" width="177.69" height="50" as="geometry" />
        </mxCell>
        <mxCell id="yezaKidyv2OO5n8ayiB5-159" style="edgeStyle=orthogonalEdgeStyle;rounded=0;orthogonalLoop=1;jettySize=auto;html=1;exitX=0.5;exitY=1;exitDx=0;exitDy=0;entryX=0.5;entryY=0;entryDx=0;entryDy=0;" parent="yezaKidyv2OO5n8ayiB5-102" source="yezaKidyv2OO5n8ayiB5-156" target="yezaKidyv2OO5n8ayiB5-158" edge="1">
          <mxGeometry relative="1" as="geometry" />
        </mxCell>
        <mxCell id="yezaKidyv2OO5n8ayiB5-161" value="Identify the actors involved" style="rounded=0;whiteSpace=wrap;html=1;labelBorderColor=none;" parent="yezaKidyv2OO5n8ayiB5-102" vertex="1">
          <mxGeometry x="21" y="50" width="166.22" height="50" as="geometry" />
        </mxCell>
        <mxCell id="yezaKidyv2OO5n8ayiB5-162" value="Identify the process/tasking&amp;nbsp;" style="rounded=0;whiteSpace=wrap;html=1;labelBorderColor=none;" parent="yezaKidyv2OO5n8ayiB5-102" vertex="1">
          <mxGeometry x="21" y="120" width="166.22" height="50" as="geometry" />
        </mxCell>
        <mxCell id="yezaKidyv2OO5n8ayiB5-163" style="edgeStyle=orthogonalEdgeStyle;rounded=0;orthogonalLoop=1;jettySize=auto;html=1;exitX=0.5;exitY=1;exitDx=0;exitDy=0;" parent="yezaKidyv2OO5n8ayiB5-102" source="yezaKidyv2OO5n8ayiB5-161" target="yezaKidyv2OO5n8ayiB5-162" edge="1">
          <mxGeometry relative="1" as="geometry" />
        </mxCell>
        <mxCell id="yezaKidyv2OO5n8ayiB5-180" style="edgeStyle=orthogonalEdgeStyle;rounded=0;orthogonalLoop=1;jettySize=auto;html=1;exitX=0.5;exitY=1;exitDx=0;exitDy=0;entryX=0.5;entryY=0;entryDx=0;entryDy=0;" parent="yezaKidyv2OO5n8ayiB5-102" source="yezaKidyv2OO5n8ayiB5-165" target="yezaKidyv2OO5n8ayiB5-155" edge="1">
          <mxGeometry relative="1" as="geometry" />
        </mxCell>
        <mxCell id="yezaKidyv2OO5n8ayiB5-165" value="Identify decision points" style="rounded=0;whiteSpace=wrap;html=1;labelBorderColor=none;" parent="yezaKidyv2OO5n8ayiB5-102" vertex="1">
          <mxGeometry x="21" y="190" width="166.22" height="50" as="geometry" />
        </mxCell>
        <mxCell id="yezaKidyv2OO5n8ayiB5-166" style="edgeStyle=orthogonalEdgeStyle;rounded=0;orthogonalLoop=1;jettySize=auto;html=1;exitX=0.5;exitY=1;exitDx=0;exitDy=0;entryX=0.5;entryY=0;entryDx=0;entryDy=0;" parent="yezaKidyv2OO5n8ayiB5-102" source="yezaKidyv2OO5n8ayiB5-162" target="yezaKidyv2OO5n8ayiB5-165" edge="1">
          <mxGeometry relative="1" as="geometry" />
        </mxCell>
        <mxCell id="yezaKidyv2OO5n8ayiB5-179" style="edgeStyle=orthogonalEdgeStyle;rounded=0;orthogonalLoop=1;jettySize=auto;html=1;exitX=0.5;exitY=1;exitDx=0;exitDy=0;entryX=0.5;entryY=0;entryDx=0;entryDy=0;" parent="yezaKidyv2OO5n8ayiB5-102" source="yezaKidyv2OO5n8ayiB5-170" target="yezaKidyv2OO5n8ayiB5-171" edge="1">
          <mxGeometry relative="1" as="geometry" />
        </mxCell>
        <mxCell id="yezaKidyv2OO5n8ayiB5-170" value="Identify on-chain and off-chain data" style="rounded=0;whiteSpace=wrap;html=1;labelBorderColor=none;" parent="yezaKidyv2OO5n8ayiB5-102" vertex="1">
          <mxGeometry x="231" y="50" width="166.22" height="50" as="geometry" />
        </mxCell>
        <mxCell id="yezaKidyv2OO5n8ayiB5-182" style="edgeStyle=orthogonalEdgeStyle;rounded=0;orthogonalLoop=1;jettySize=auto;html=1;exitX=0.5;exitY=1;exitDx=0;exitDy=0;entryX=0.5;entryY=0;entryDx=0;entryDy=0;" parent="yezaKidyv2OO5n8ayiB5-102" source="yezaKidyv2OO5n8ayiB5-171" target="yezaKidyv2OO5n8ayiB5-156" edge="1">
          <mxGeometry relative="1" as="geometry" />
        </mxCell>
        <mxCell id="yezaKidyv2OO5n8ayiB5-171" value="Identify the required ERP modules" style="rounded=0;whiteSpace=wrap;html=1;labelBorderColor=none;" parent="yezaKidyv2OO5n8ayiB5-102" vertex="1">
          <mxGeometry x="231" y="120" width="166.22" height="50" as="geometry" />
        </mxCell>
        <mxCell id="yezaKidyv2OO5n8ayiB5-183" value="Transforming Business Models into Smart Contracts" style="swimlane;whiteSpace=wrap;html=1;" parent="1" vertex="1">
          <mxGeometry x="480.15999999999997" y="720" width="360" height="330" as="geometry" />
        </mxCell>
        <mxCell id="yezaKidyv2OO5n8ayiB5-203" style="edgeStyle=orthogonalEdgeStyle;rounded=0;orthogonalLoop=1;jettySize=auto;html=1;exitX=0.5;exitY=1;exitDx=0;exitDy=0;entryX=0.5;entryY=0;entryDx=0;entryDy=0;" parent="yezaKidyv2OO5n8ayiB5-183" source="yezaKidyv2OO5n8ayiB5-185" target="yezaKidyv2OO5n8ayiB5-186" edge="1">
          <mxGeometry relative="1" as="geometry" />
        </mxCell>
        <mxCell id="yezaKidyv2OO5n8ayiB5-185" value="Identify auction business function" style="rounded=0;whiteSpace=wrap;html=1;labelBorderColor=none;" parent="yezaKidyv2OO5n8ayiB5-183" vertex="1">
          <mxGeometry x="10" y="50" width="150" height="50" as="geometry" />
        </mxCell>
        <mxCell id="yezaKidyv2OO5n8ayiB5-204" style="edgeStyle=orthogonalEdgeStyle;rounded=0;orthogonalLoop=1;jettySize=auto;html=1;exitX=0.5;exitY=1;exitDx=0;exitDy=0;entryX=0.5;entryY=0;entryDx=0;entryDy=0;" parent="yezaKidyv2OO5n8ayiB5-183" source="yezaKidyv2OO5n8ayiB5-186" target="yezaKidyv2OO5n8ayiB5-187" edge="1">
          <mxGeometry relative="1" as="geometry" />
        </mxCell>
        <mxCell id="yezaKidyv2OO5n8ayiB5-186" value="Converting business functions to smart contract functions" style="rounded=0;whiteSpace=wrap;html=1;labelBorderColor=none;" parent="yezaKidyv2OO5n8ayiB5-183" vertex="1">
          <mxGeometry x="10" y="120" width="150" height="50" as="geometry" />
        </mxCell>
        <mxCell id="yezaKidyv2OO5n8ayiB5-205" style="edgeStyle=orthogonalEdgeStyle;rounded=0;orthogonalLoop=1;jettySize=auto;html=1;exitX=0.5;exitY=1;exitDx=0;exitDy=0;entryX=0.5;entryY=0;entryDx=0;entryDy=0;" parent="yezaKidyv2OO5n8ayiB5-183" source="yezaKidyv2OO5n8ayiB5-187" target="yezaKidyv2OO5n8ayiB5-188" edge="1">
          <mxGeometry relative="1" as="geometry" />
        </mxCell>
        <mxCell id="yezaKidyv2OO5n8ayiB5-187" value="Identify auction metadata" style="rounded=0;whiteSpace=wrap;html=1;labelBorderColor=none;" parent="yezaKidyv2OO5n8ayiB5-183" vertex="1">
          <mxGeometry x="10" y="190" width="150" height="50" as="geometry" />
        </mxCell>
        <mxCell id="yezaKidyv2OO5n8ayiB5-206" style="edgeStyle=orthogonalEdgeStyle;rounded=0;orthogonalLoop=1;jettySize=auto;html=1;exitX=1;exitY=0.5;exitDx=0;exitDy=0;entryX=0;entryY=0.5;entryDx=0;entryDy=0;" parent="yezaKidyv2OO5n8ayiB5-183" source="yezaKidyv2OO5n8ayiB5-188" target="yezaKidyv2OO5n8ayiB5-199" edge="1">
          <mxGeometry relative="1" as="geometry" />
        </mxCell>
        <mxCell id="yezaKidyv2OO5n8ayiB5-188" value="Converting auction metadata to struct" style="rounded=0;whiteSpace=wrap;html=1;labelBorderColor=none;" parent="yezaKidyv2OO5n8ayiB5-183" vertex="1">
          <mxGeometry x="10" y="260" width="150" height="50" as="geometry" />
        </mxCell>
        <mxCell id="yezaKidyv2OO5n8ayiB5-207" style="edgeStyle=orthogonalEdgeStyle;rounded=0;orthogonalLoop=1;jettySize=auto;html=1;exitX=0.5;exitY=1;exitDx=0;exitDy=0;entryX=0.5;entryY=0;entryDx=0;entryDy=0;" parent="yezaKidyv2OO5n8ayiB5-183" source="yezaKidyv2OO5n8ayiB5-199" target="yezaKidyv2OO5n8ayiB5-200" edge="1">
          <mxGeometry relative="1" as="geometry" />
        </mxCell>
        <mxCell id="yezaKidyv2OO5n8ayiB5-199" value="Defining business logic in smart contracts" style="rounded=0;whiteSpace=wrap;html=1;labelBorderColor=none;" parent="yezaKidyv2OO5n8ayiB5-183" vertex="1">
          <mxGeometry x="200" y="50" width="150" height="50" as="geometry" />
        </mxCell>
        <mxCell id="yezaKidyv2OO5n8ayiB5-208" style="edgeStyle=orthogonalEdgeStyle;rounded=0;orthogonalLoop=1;jettySize=auto;html=1;exitX=0.5;exitY=1;exitDx=0;exitDy=0;entryX=0.5;entryY=0;entryDx=0;entryDy=0;" parent="yezaKidyv2OO5n8ayiB5-183" source="yezaKidyv2OO5n8ayiB5-200" target="yezaKidyv2OO5n8ayiB5-201" edge="1">
          <mxGeometry relative="1" as="geometry" />
        </mxCell>
        <mxCell id="yezaKidyv2OO5n8ayiB5-200" value="Complie smart contract" style="rounded=0;whiteSpace=wrap;html=1;labelBorderColor=none;" parent="yezaKidyv2OO5n8ayiB5-183" vertex="1">
          <mxGeometry x="200" y="120" width="150" height="50" as="geometry" />
        </mxCell>
        <mxCell id="yezaKidyv2OO5n8ayiB5-209" style="edgeStyle=orthogonalEdgeStyle;rounded=0;orthogonalLoop=1;jettySize=auto;html=1;exitX=0.5;exitY=1;exitDx=0;exitDy=0;entryX=0.541;entryY=0.029;entryDx=0;entryDy=0;entryPerimeter=0;" parent="yezaKidyv2OO5n8ayiB5-183" source="yezaKidyv2OO5n8ayiB5-201" target="yezaKidyv2OO5n8ayiB5-202" edge="1">
          <mxGeometry relative="1" as="geometry" />
        </mxCell>
        <mxCell id="yezaKidyv2OO5n8ayiB5-201" value="Deploy smart contract" style="rounded=0;whiteSpace=wrap;html=1;labelBorderColor=none;" parent="yezaKidyv2OO5n8ayiB5-183" vertex="1">
          <mxGeometry x="200" y="190" width="150" height="50" as="geometry" />
        </mxCell>
        <mxCell id="yezaKidyv2OO5n8ayiB5-202" value="&lt;div&gt;Smart contract of&lt;/div&gt;&lt;div&gt;I&lt;span style=&quot;background-color: initial;&quot;&gt;BEA Model&lt;/span&gt;&lt;/div&gt;" style="shape=parallelogram;perimeter=parallelogramPerimeter;whiteSpace=wrap;html=1;fixedSize=1;fillColor=#f5f5f5;fontColor=#333333;strokeColor=#666666;" parent="yezaKidyv2OO5n8ayiB5-183" vertex="1">
          <mxGeometry x="190" y="260" width="160" height="50" as="geometry" />
        </mxCell>
        <mxCell id="yezaKidyv2OO5n8ayiB5-214" value="Transforming Technology into Blockchain and ERP" style="swimlane;whiteSpace=wrap;html=1;" parent="1" vertex="1">
          <mxGeometry x="9" y="1090" width="831" height="370" as="geometry" />
        </mxCell>
        <mxCell id="yezaKidyv2OO5n8ayiB5-252" style="edgeStyle=orthogonalEdgeStyle;rounded=0;orthogonalLoop=1;jettySize=auto;html=1;exitX=1;exitY=0.5;exitDx=0;exitDy=0;entryX=0;entryY=0.5;entryDx=0;entryDy=0;startArrow=classic;startFill=1;" parent="yezaKidyv2OO5n8ayiB5-214" source="yezaKidyv2OO5n8ayiB5-223" target="yezaKidyv2OO5n8ayiB5-224" edge="1">
          <mxGeometry relative="1" as="geometry" />
        </mxCell>
        <mxCell id="yezaKidyv2OO5n8ayiB5-223" value="Configuring the Blockchain Network" style="swimlane;whiteSpace=wrap;html=1;" parent="yezaKidyv2OO5n8ayiB5-214" vertex="1">
          <mxGeometry x="11" y="40" width="379" height="310" as="geometry" />
        </mxCell>
        <mxCell id="yezaKidyv2OO5n8ayiB5-237" style="edgeStyle=orthogonalEdgeStyle;rounded=0;orthogonalLoop=1;jettySize=auto;html=1;exitX=0.5;exitY=1;exitDx=0;exitDy=0;entryX=0.5;entryY=0;entryDx=0;entryDy=0;" parent="yezaKidyv2OO5n8ayiB5-223" source="yezaKidyv2OO5n8ayiB5-228" target="yezaKidyv2OO5n8ayiB5-230" edge="1">
          <mxGeometry relative="1" as="geometry" />
        </mxCell>
        <mxCell id="yezaKidyv2OO5n8ayiB5-228" value="Define the number of actors" style="rounded=0;whiteSpace=wrap;html=1;labelBorderColor=none;" parent="yezaKidyv2OO5n8ayiB5-223" vertex="1">
          <mxGeometry x="10" y="40" width="150" height="50" as="geometry" />
        </mxCell>
        <mxCell id="yezaKidyv2OO5n8ayiB5-238" style="edgeStyle=orthogonalEdgeStyle;rounded=0;orthogonalLoop=1;jettySize=auto;html=1;exitX=0.5;exitY=1;exitDx=0;exitDy=0;entryX=0.5;entryY=0;entryDx=0;entryDy=0;" parent="yezaKidyv2OO5n8ayiB5-223" source="yezaKidyv2OO5n8ayiB5-230" target="yezaKidyv2OO5n8ayiB5-231" edge="1">
          <mxGeometry relative="1" as="geometry" />
        </mxCell>
        <mxCell id="yezaKidyv2OO5n8ayiB5-230" value="Define the role of each actors" style="rounded=0;whiteSpace=wrap;html=1;labelBorderColor=none;" parent="yezaKidyv2OO5n8ayiB5-223" vertex="1">
          <mxGeometry x="10" y="110" width="150" height="50" as="geometry" />
        </mxCell>
        <mxCell id="yezaKidyv2OO5n8ayiB5-239" style="edgeStyle=orthogonalEdgeStyle;rounded=0;orthogonalLoop=1;jettySize=auto;html=1;exitX=0.5;exitY=1;exitDx=0;exitDy=0;entryX=0.5;entryY=0;entryDx=0;entryDy=0;" parent="yezaKidyv2OO5n8ayiB5-223" source="yezaKidyv2OO5n8ayiB5-231" target="yezaKidyv2OO5n8ayiB5-232" edge="1">
          <mxGeometry relative="1" as="geometry" />
        </mxCell>
        <mxCell id="yezaKidyv2OO5n8ayiB5-231" value="Define the number of peers node" style="rounded=0;whiteSpace=wrap;html=1;labelBorderColor=none;" parent="yezaKidyv2OO5n8ayiB5-223" vertex="1">
          <mxGeometry x="10" y="180" width="150" height="50" as="geometry" />
        </mxCell>
        <mxCell id="yezaKidyv2OO5n8ayiB5-240" style="edgeStyle=orthogonalEdgeStyle;rounded=0;orthogonalLoop=1;jettySize=auto;html=1;exitX=1;exitY=0.5;exitDx=0;exitDy=0;entryX=0;entryY=0.5;entryDx=0;entryDy=0;" parent="yezaKidyv2OO5n8ayiB5-223" source="yezaKidyv2OO5n8ayiB5-232" target="yezaKidyv2OO5n8ayiB5-233" edge="1">
          <mxGeometry relative="1" as="geometry" />
        </mxCell>
        <mxCell id="yezaKidyv2OO5n8ayiB5-232" value="Define the number of orderer node" style="rounded=0;whiteSpace=wrap;html=1;labelBorderColor=none;" parent="yezaKidyv2OO5n8ayiB5-223" vertex="1">
          <mxGeometry x="10" y="250" width="150" height="50" as="geometry" />
        </mxCell>
        <mxCell id="yezaKidyv2OO5n8ayiB5-244" style="edgeStyle=orthogonalEdgeStyle;rounded=0;orthogonalLoop=1;jettySize=auto;html=1;exitX=0.5;exitY=1;exitDx=0;exitDy=0;entryX=0.5;entryY=0;entryDx=0;entryDy=0;" parent="yezaKidyv2OO5n8ayiB5-223" source="yezaKidyv2OO5n8ayiB5-233" target="yezaKidyv2OO5n8ayiB5-234" edge="1">
          <mxGeometry relative="1" as="geometry" />
        </mxCell>
        <mxCell id="yezaKidyv2OO5n8ayiB5-233" value="Define the certificate authorities" style="rounded=0;whiteSpace=wrap;html=1;labelBorderColor=none;" parent="yezaKidyv2OO5n8ayiB5-223" vertex="1">
          <mxGeometry x="200" y="40" width="150" height="50" as="geometry" />
        </mxCell>
        <mxCell id="yezaKidyv2OO5n8ayiB5-242" style="edgeStyle=orthogonalEdgeStyle;rounded=0;orthogonalLoop=1;jettySize=auto;html=1;exitX=0.5;exitY=1;exitDx=0;exitDy=0;entryX=0.5;entryY=0;entryDx=0;entryDy=0;" parent="yezaKidyv2OO5n8ayiB5-223" source="yezaKidyv2OO5n8ayiB5-234" target="yezaKidyv2OO5n8ayiB5-235" edge="1">
          <mxGeometry relative="1" as="geometry" />
        </mxCell>
        <mxCell id="yezaKidyv2OO5n8ayiB5-234" value="Define channel and it&#39;s participants" style="rounded=0;whiteSpace=wrap;html=1;labelBorderColor=none;" parent="yezaKidyv2OO5n8ayiB5-223" vertex="1">
          <mxGeometry x="200" y="110" width="150" height="50" as="geometry" />
        </mxCell>
        <mxCell id="yezaKidyv2OO5n8ayiB5-243" style="edgeStyle=orthogonalEdgeStyle;rounded=0;orthogonalLoop=1;jettySize=auto;html=1;exitX=0.5;exitY=1;exitDx=0;exitDy=0;entryX=0.5;entryY=0;entryDx=0;entryDy=0;" parent="yezaKidyv2OO5n8ayiB5-223" source="yezaKidyv2OO5n8ayiB5-235" target="yezaKidyv2OO5n8ayiB5-236" edge="1">
          <mxGeometry relative="1" as="geometry" />
        </mxCell>
        <mxCell id="yezaKidyv2OO5n8ayiB5-235" value="Deploy network" style="rounded=0;whiteSpace=wrap;html=1;labelBorderColor=none;" parent="yezaKidyv2OO5n8ayiB5-223" vertex="1">
          <mxGeometry x="200" y="180" width="150" height="50" as="geometry" />
        </mxCell>
        <mxCell id="yezaKidyv2OO5n8ayiB5-236" value="Blockchain Network" style="shape=parallelogram;perimeter=parallelogramPerimeter;whiteSpace=wrap;html=1;fixedSize=1;fillColor=#f5f5f5;fontColor=#333333;strokeColor=#666666;" parent="yezaKidyv2OO5n8ayiB5-223" vertex="1">
          <mxGeometry x="194.99999999999994" y="250" width="160" height="50" as="geometry" />
        </mxCell>
        <mxCell id="yezaKidyv2OO5n8ayiB5-224" value="Develop ERP Modules" style="swimlane;whiteSpace=wrap;html=1;" parent="yezaKidyv2OO5n8ayiB5-214" vertex="1">
          <mxGeometry x="420" y="40" width="391" height="310" as="geometry" />
        </mxCell>
        <mxCell id="yezaKidyv2OO5n8ayiB5-257" style="edgeStyle=orthogonalEdgeStyle;rounded=0;orthogonalLoop=1;jettySize=auto;html=1;exitX=0.5;exitY=1;exitDx=0;exitDy=0;entryX=0.5;entryY=0;entryDx=0;entryDy=0;" parent="yezaKidyv2OO5n8ayiB5-224" source="yezaKidyv2OO5n8ayiB5-245" target="yezaKidyv2OO5n8ayiB5-246" edge="1">
          <mxGeometry relative="1" as="geometry" />
        </mxCell>
        <mxCell id="yezaKidyv2OO5n8ayiB5-245" value="Define ERP owner" style="rounded=0;whiteSpace=wrap;html=1;labelBorderColor=none;" parent="yezaKidyv2OO5n8ayiB5-224" vertex="1">
          <mxGeometry x="21" y="40" width="150" height="50" as="geometry" />
        </mxCell>
        <mxCell id="yezaKidyv2OO5n8ayiB5-258" style="edgeStyle=orthogonalEdgeStyle;rounded=0;orthogonalLoop=1;jettySize=auto;html=1;exitX=0.5;exitY=1;exitDx=0;exitDy=0;entryX=0.5;entryY=0;entryDx=0;entryDy=0;" parent="yezaKidyv2OO5n8ayiB5-224" source="yezaKidyv2OO5n8ayiB5-246" target="yezaKidyv2OO5n8ayiB5-247" edge="1">
          <mxGeometry relative="1" as="geometry" />
        </mxCell>
        <mxCell id="yezaKidyv2OO5n8ayiB5-246" value="Identify ERP modules needed in auction process" style="rounded=0;whiteSpace=wrap;html=1;labelBorderColor=none;" parent="yezaKidyv2OO5n8ayiB5-224" vertex="1">
          <mxGeometry x="21" y="110" width="150" height="50" as="geometry" />
        </mxCell>
        <mxCell id="yezaKidyv2OO5n8ayiB5-259" style="edgeStyle=orthogonalEdgeStyle;rounded=0;orthogonalLoop=1;jettySize=auto;html=1;exitX=0.5;exitY=1;exitDx=0;exitDy=0;entryX=0.5;entryY=0;entryDx=0;entryDy=0;" parent="yezaKidyv2OO5n8ayiB5-224" source="yezaKidyv2OO5n8ayiB5-247" target="yezaKidyv2OO5n8ayiB5-248" edge="1">
          <mxGeometry relative="1" as="geometry" />
        </mxCell>
        <mxCell id="yezaKidyv2OO5n8ayiB5-247" value="Defines the meta data in the module" style="rounded=0;whiteSpace=wrap;html=1;labelBorderColor=none;" parent="yezaKidyv2OO5n8ayiB5-224" vertex="1">
          <mxGeometry x="21" y="180" width="150" height="50" as="geometry" />
        </mxCell>
        <mxCell id="yezaKidyv2OO5n8ayiB5-260" style="edgeStyle=orthogonalEdgeStyle;rounded=0;orthogonalLoop=1;jettySize=auto;html=1;exitX=1;exitY=0.5;exitDx=0;exitDy=0;entryX=0;entryY=0.5;entryDx=0;entryDy=0;" parent="yezaKidyv2OO5n8ayiB5-224" source="yezaKidyv2OO5n8ayiB5-248" target="yezaKidyv2OO5n8ayiB5-249" edge="1">
          <mxGeometry relative="1" as="geometry" />
        </mxCell>
        <mxCell id="yezaKidyv2OO5n8ayiB5-248" value="Create a data model on the ERP database" style="rounded=0;whiteSpace=wrap;html=1;labelBorderColor=none;" parent="yezaKidyv2OO5n8ayiB5-224" vertex="1">
          <mxGeometry x="21" y="250" width="150" height="50" as="geometry" />
        </mxCell>
        <mxCell id="yezaKidyv2OO5n8ayiB5-261" style="edgeStyle=orthogonalEdgeStyle;rounded=0;orthogonalLoop=1;jettySize=auto;html=1;exitX=0.5;exitY=1;exitDx=0;exitDy=0;entryX=0.5;entryY=0;entryDx=0;entryDy=0;" parent="yezaKidyv2OO5n8ayiB5-224" source="yezaKidyv2OO5n8ayiB5-249" target="yezaKidyv2OO5n8ayiB5-250" edge="1">
          <mxGeometry relative="1" as="geometry" />
        </mxCell>
        <mxCell id="yezaKidyv2OO5n8ayiB5-249" value="Create a data model for each modules" style="rounded=0;whiteSpace=wrap;html=1;labelBorderColor=none;" parent="yezaKidyv2OO5n8ayiB5-224" vertex="1">
          <mxGeometry x="221" y="40" width="150" height="50" as="geometry" />
        </mxCell>
        <mxCell id="yezaKidyv2OO5n8ayiB5-262" style="edgeStyle=orthogonalEdgeStyle;rounded=0;orthogonalLoop=1;jettySize=auto;html=1;exitX=0.5;exitY=1;exitDx=0;exitDy=0;entryX=0.5;entryY=0;entryDx=0;entryDy=0;" parent="yezaKidyv2OO5n8ayiB5-224" source="yezaKidyv2OO5n8ayiB5-250" target="yezaKidyv2OO5n8ayiB5-255" edge="1">
          <mxGeometry relative="1" as="geometry" />
        </mxCell>
        <mxCell id="yezaKidyv2OO5n8ayiB5-250" value="Deploy modules to ERP&amp;nbsp;" style="rounded=0;whiteSpace=wrap;html=1;labelBorderColor=none;" parent="yezaKidyv2OO5n8ayiB5-224" vertex="1">
          <mxGeometry x="221" y="110" width="150" height="50" as="geometry" />
        </mxCell>
        <mxCell id="yezaKidyv2OO5n8ayiB5-255" value="ERP" style="shape=parallelogram;perimeter=parallelogramPerimeter;whiteSpace=wrap;html=1;fixedSize=1;fillColor=#f5f5f5;fontColor=#333333;strokeColor=#666666;" parent="yezaKidyv2OO5n8ayiB5-224" vertex="1">
          <mxGeometry x="216" y="180" width="160" height="50" as="geometry" />
        </mxCell>
        <mxCell id="iU5nzJZfHMQESBjlXghP-1" value="" style="triangle;whiteSpace=wrap;html=1;rotation=-90;" vertex="1" parent="1">
          <mxGeometry x="170" y="-620" width="532.5" height="710" as="geometry" />
        </mxCell>
        <mxCell id="iU5nzJZfHMQESBjlXghP-2" value="" style="endArrow=none;html=1;rounded=0;exitX=0.303;exitY=0.848;exitDx=0;exitDy=0;exitPerimeter=0;entryX=0.303;entryY=0.151;entryDx=0;entryDy=0;entryPerimeter=0;elbow=vertical;" edge="1" parent="1" source="iU5nzJZfHMQESBjlXghP-1" target="iU5nzJZfHMQESBjlXghP-1">
          <mxGeometry width="50" height="50" relative="1" as="geometry">
            <mxPoint x="400" y="-240" as="sourcePoint" />
            <mxPoint x="190" y="-161" as="targetPoint" />
            <Array as="points" />
          </mxGeometry>
        </mxCell>
        <mxCell id="iU5nzJZfHMQESBjlXghP-8" value="" style="verticalLabelPosition=bottom;verticalAlign=top;html=1;shape=mxgraph.basic.acute_triangle;dx=0.5;rotation=-180;" vertex="1" parent="1">
          <mxGeometry x="296" y="-320" width="280.5" height="160" as="geometry" />
        </mxCell>
        <mxCell id="iU5nzJZfHMQESBjlXghP-9" value="" style="endArrow=none;html=1;rounded=0;exitX=0;exitY=0.5;exitDx=0;exitDy=0;entryX=0;entryY=0;entryDx=140.25;entryDy=0;entryPerimeter=0;" edge="1" parent="1" source="iU5nzJZfHMQESBjlXghP-1" target="iU5nzJZfHMQESBjlXghP-8">
          <mxGeometry width="50" height="50" relative="1" as="geometry">
            <mxPoint x="390" y="-80" as="sourcePoint" />
            <mxPoint x="440" y="-160" as="targetPoint" />
          </mxGeometry>
        </mxCell>
        <mxCell id="iU5nzJZfHMQESBjlXghP-10" value="&lt;b style=&quot;font-size: 13px;&quot;&gt;Integrated On-chain&amp;nbsp; &amp;amp; &lt;br&gt;Off-chain process&lt;/b&gt;" style="text;html=1;strokeColor=none;fillColor=none;align=center;verticalAlign=middle;whiteSpace=wrap;rounded=0;fontSize=13;" vertex="1" parent="1">
          <mxGeometry x="406.25" y="-440" width="60" height="30" as="geometry" />
        </mxCell>
        <mxCell id="iU5nzJZfHMQESBjlXghP-12" value="" style="endArrow=none;html=1;rounded=0;entryX=0.5;entryY=1;entryDx=0;entryDy=0;entryPerimeter=0;exitX=0.803;exitY=0.402;exitDx=0;exitDy=0;exitPerimeter=0;" edge="1" parent="1" source="iU5nzJZfHMQESBjlXghP-1" target="iU5nzJZfHMQESBjlXghP-8">
          <mxGeometry width="50" height="50" relative="1" as="geometry">
            <mxPoint x="460" y="-240" as="sourcePoint" />
            <mxPoint x="510" y="-290" as="targetPoint" />
          </mxGeometry>
        </mxCell>
        <mxCell id="iU5nzJZfHMQESBjlXghP-13" value="" style="endArrow=none;html=1;rounded=0;entryX=0.5;entryY=1;entryDx=0;entryDy=0;entryPerimeter=0;exitX=0.801;exitY=0.6;exitDx=0;exitDy=0;exitPerimeter=0;" edge="1" parent="1" source="iU5nzJZfHMQESBjlXghP-1" target="iU5nzJZfHMQESBjlXghP-8">
          <mxGeometry width="50" height="50" relative="1" as="geometry">
            <mxPoint x="377" y="-416" as="sourcePoint" />
            <mxPoint x="446" y="-310" as="targetPoint" />
          </mxGeometry>
        </mxCell>
        <mxCell id="iU5nzJZfHMQESBjlXghP-14" value="&lt;b style=&quot;font-size: 13px;&quot;&gt;On-chain&lt;br&gt;process&lt;/b&gt;" style="text;html=1;strokeColor=none;fillColor=none;align=center;verticalAlign=middle;whiteSpace=wrap;rounded=0;fontSize=13;" vertex="1" parent="1">
          <mxGeometry x="460" y="-360" width="90" height="30" as="geometry" />
        </mxCell>
        <mxCell id="iU5nzJZfHMQESBjlXghP-15" value="&lt;b style=&quot;font-size: 13px;&quot;&gt;Off-chain&lt;br&gt;process&lt;/b&gt;" style="text;html=1;strokeColor=none;fillColor=none;align=center;verticalAlign=middle;whiteSpace=wrap;rounded=0;fontSize=13;" vertex="1" parent="1">
          <mxGeometry x="326.38" y="-360" width="90" height="30" as="geometry" />
        </mxCell>
        <mxCell id="iU5nzJZfHMQESBjlXghP-16" value="&lt;b style=&quot;font-size: 13px;&quot;&gt;On-chain&lt;br&gt;data&lt;/b&gt;" style="text;html=1;strokeColor=none;fillColor=none;align=center;verticalAlign=middle;whiteSpace=wrap;rounded=0;fontSize=13;" vertex="1" parent="1">
          <mxGeometry x="520" y="-230" width="90" height="30" as="geometry" />
        </mxCell>
      </root>
    </mxGraphModel>
  </diagram>
</mxfile>
